<svg xmlns="http://www.w3.org/2000/svg" viewBox="0 0 64 64"><polygon fill="#939bb7" points="23.75,18.58 27.75,20.32 33.00,16.28 29.00,14.55"/><polygon fill="#393957" points="16.75,24.81 17.75,25.24 29.00,16.59 28.00,16.15"/><polygon fill="#464a68" points="34.25,15.68 43.25,19.57 44.00,19.00 35.00,15.10"/><polygon fill="#393957" points="32.75,14.79 33.75,15.23 35.25,14.07 34.25,13.64"/><polygon fill="#393957" points="23.00,21.20 38.00,27.69 38.75,27.12 23.75,20.62"/><polygon fill="#62687b" points="23.75,20.62 38.75,27.12 38.75,25.08 23.75,18.58"/><polygon fill="#cf824c" points="33.00,14.78 35.00,15.65 38.00,13.34 36.00,12.48"/><polygon fill="#aa6b3e" points="35.00,16.67 38.00,14.36 38.00,13.34 35.00,15.65"/><polygon fill="#939bb7" points="17.75,23.20 21.75,24.93 27.00,20.89 23.00,19.16"/><polygon fill="#464a68" points="21.75,22.89 23.75,23.76 35.00,15.10 33.00,14.24"/><polygon fill="#26263a" points="32.75,16.83 41.75,20.73 41.75,18.69 32.75,14.79"/><polygon fill="#797f96" points="38.75,27.12 44.00,23.08 44.00,21.04 38.75,25.08"/><polygon fill="#8b5733" points="33.00,15.80 35.00,16.67 35.00,15.65 33.00,14.78"/><polygon fill="#393957" points="35.75,16.09 41.75,18.69 43.25,17.53 37.25,14.94"/><polygon fill="#464a68" points="29.75,19.14 38.75,23.04 41.75,20.73 32.75,16.83"/><polygon fill="#464a68" points="43.25,19.57 50.25,22.60 51.00,22.03 44.00,19.00"/><polygon fill="#393957" points="28.25,18.26 29.25,18.69 30.75,17.53 29.75,17.10"/><polygon fill="#393957" points="32.75,31.73 33.75,32.16 45.00,23.51 44.00,23.08"/><polygon fill="#cf824c" points="28.50,18.25 30.50,19.11 33.50,16.80 31.50,15.94"/><polygon fill="#aa6b3e" points="30.50,20.13 33.50,17.82 33.50,16.80 30.50,19.11"/><polygon fill="#393957" points="16.00,25.39 32.00,32.31 32.75,31.73 16.75,24.81"/><polygon fill="#393957" points="41.75,18.69 48.75,21.72 50.25,20.56 43.25,17.53"/><polygon fill="#26263a" points="28.25,20.30 37.25,24.19 37.25,22.15 28.25,18.26"/><polygon fill="#26263a" points="41.75,20.73 48.75,23.76 48.75,21.72 41.75,18.69"/><polygon fill="#62687b" points="17.75,25.24 32.75,31.73 32.75,29.69 17.75,23.20"/><polygon fill="#8b5733" points="28.50,19.27 30.50,20.13 30.50,19.11 28.50,18.25"/><polygon fill="#393957" points="31.25,19.55 37.25,22.15 38.75,21.00 32.75,18.40"/><polygon fill="#464a68" points="25.25,22.60 34.25,26.50 37.25,24.19 28.25,20.30"/><polygon fill="#464a68" points="38.75,23.04 45.75,26.07 48.75,23.76 41.75,20.73"/><polygon fill="#ced0df" points="11.75,27.82 15.75,29.55 21.00,25.51 17.00,23.78"/><polygon fill="#393957" points="4.75,34.04 5.75,34.47 17.00,25.82 16.00,25.39"/><polygon fill="#797f96" points="32.75,31.73 38.00,27.69 38.00,25.65 32.75,29.69"/><polygon fill="#393957" points="23.75,21.72 24.75,22.15 26.25,21.00 25.25,20.56"/><polygon fill="#393957" points="39.00,28.13 54.00,34.62 54.75,34.04 39.75,27.55"/><polygon fill="#7b7c8b" points="39.75,27.55 54.75,34.04 54.75,32.00 39.75,25.51"/><polygon fill="#464a68" points="21.00,23.47 32.00,28.23 32.75,27.65 21.75,22.89"/><polygon fill="#cf824c" points="24.00,21.71 26.00,22.57 29.00,20.26 27.00,19.40"/><polygon fill="#aa6b3e" points="26.00,23.59 29.00,21.28 29.00,20.26 26.00,22.57"/><polygon fill="#393957" points="37.25,22.15 44.25,25.18 45.75,24.03 38.75,21.00"/><polygon fill="#26263a" points="37.25,24.19 44.25,27.22 44.25,25.18 37.25,22.15"/><polygon fill="#26263a" points="23.75,23.76 32.75,27.65 32.75,25.61 23.75,21.72"/><polygon fill="#8e345b" points="50.50,20.55 58.50,24.02 60.00,22.86 52.00,19.40"/><polygon fill="#9798aa" points="54.75,34.04 60.00,30.00 60.00,27.96 54.75,32.00"/><polygon fill="#8b5733" points="24.00,22.73 26.00,23.59 26.00,22.57 24.00,21.71"/><polygon fill="#393957" points="26.75,23.02 32.75,25.61 34.25,24.46 28.25,21.86"/><polygon fill="#464a68" points="34.25,26.50 41.25,29.53 44.25,27.22 37.25,24.19"/><polygon fill="#464a68" points="20.75,26.07 29.75,29.96 32.00,28.23 23.00,24.33"/><polygon fill="#393957" points="11.00,30.43 26.00,36.93 26.75,36.35 11.75,29.86"/><polygon fill="#8a8b95" points="11.75,29.86 26.75,36.35 26.75,34.31 11.75,27.82"/><polygon fill="#2f2f47" points="48.00,42.29 60.00,33.06 60.00,30.00 48.00,39.23"/><polygon fill="#8e345b" points="40.50,27.04 41.50,27.48 52.00,19.40 51.00,18.97"/><polygon fill="#393957" points="19.25,25.18 20.25,25.61 21.75,24.46 20.75,24.03"/><polygon fill="#ced0df" points="5.75,32.43 9.75,34.16 15.00,30.12 11.00,28.39"/><polygon fill="#464a68" points="9.00,32.70 11.00,33.57 23.00,24.33 21.00,23.47"/><polygon fill="#a9abb7" points="26.75,36.35 32.00,32.31 32.00,30.27 26.75,34.31"/><polygon fill="#cf824c" points="19.50,25.17 21.50,26.03 24.50,23.73 22.50,22.86"/><polygon fill="#aa6b3e" points="21.50,27.05 24.50,24.75 24.50,23.73 21.50,26.03"/><polygon fill="#393957" points="32.00,32.31 48.00,39.23 48.75,38.66 32.75,31.73"/><polygon fill="#464a68" points="32.00,28.23 39.00,31.26 39.75,30.68 32.75,27.65"/><polygon fill="#393957" points="32.75,25.61 39.75,28.64 41.25,27.49 34.25,24.46"/><polygon fill="#26263a" points="19.25,27.22 28.25,31.11 28.25,29.07 19.25,25.18"/><polygon fill="#26263a" points="32.75,27.65 39.75,30.68 39.75,28.64 32.75,25.61"/><polygon fill="#7b7c8b" points="33.75,32.16 48.75,38.66 48.75,36.62 33.75,30.12"/><polygon fill="#8b5733" points="19.50,26.19 21.50,27.05 21.50,26.03 19.50,25.17"/><polygon fill="#393957" points="22.25,26.48 28.25,29.07 29.75,27.92 23.75,25.32"/><polygon fill="#464a68" points="16.25,29.53 25.25,33.42 28.25,31.11 19.25,27.22"/><polygon fill="#393957" points="20.75,40.96 21.75,41.40 33.00,32.74 32.00,32.31"/><polygon fill="#742b4b" points="48.00,37.19 60.00,27.96 60.00,22.86 48.00,32.09"/><polygon fill="#b8b9cf" points="41.50,26.46 49.50,29.92 58.50,23.00 50.50,19.53"/><polygon fill="#464a68" points="29.75,29.96 38.75,33.85 41.00,32.12 32.00,28.23"/><polygon fill="#9798aa" points="48.75,38.66 54.00,34.62 54.00,32.58 48.75,36.62"/><polygon fill="#26263a" points="4.00,37.68 20.00,44.60 20.00,41.54 4.00,34.62"/><polygon fill="#393957" points="14.75,28.64 15.75,29.07 17.25,27.92 16.25,27.49"/><polygon fill="#393957" points="4.00,34.62 20.00,41.54 20.75,40.96 4.75,34.04"/><polygon fill="#8a8b95" points="5.75,34.47 20.75,40.96 20.75,38.92 5.75,32.43"/><polygon fill="#9798aa" points="49.50,30.94 58.50,24.02 58.50,23.00 49.50,29.92"/><polygon fill="#cf824c" points="15.00,28.63 17.00,29.50 20.00,27.19 18.00,26.32"/><polygon fill="#aa6b3e" points="17.00,30.52 20.00,28.21 20.00,27.19 17.00,29.50"/><polygon fill="#26263a" points="14.75,30.68 23.75,34.58 23.75,32.54 14.75,28.64"/><polygon fill="#a9abb7" points="20.75,40.96 26.00,36.93 26.00,34.89 20.75,38.92"/><polygon fill="#8b5733" points="15.00,29.65 17.00,30.52 17.00,29.50 15.00,28.63"/><polygon fill="#393957" points="28.25,29.07 37.25,32.97 38.75,31.81 29.75,27.92"/><polygon fill="#26263a" points="28.25,31.11 37.25,35.01 37.25,32.97 28.25,29.07"/><polygon fill="#5f233d" points="43.00,35.03 48.00,37.19 48.00,35.15 43.00,32.99"/><polygon fill="#393957" points="17.75,29.94 23.75,32.54 25.25,31.38 19.25,28.79"/><polygon fill="#464a68" points="11.75,32.99 20.75,36.88 23.75,34.58 14.75,30.68"/><polygon fill="#5f233d" points="39.00,31.26 48.00,35.15 48.00,32.09 39.00,28.20"/><polygon fill="#7b7c8b" points="41.50,27.48 49.50,30.94 49.50,29.92 41.50,26.46"/><polygon fill="#8e345b" points="39.00,28.20 48.00,32.09 49.50,30.94 40.50,27.04"/><polygon fill="#464a68" points="25.25,33.42 34.25,37.32 37.25,35.01 28.25,31.11"/><polygon fill="#393957" points="27.00,37.36 42.00,43.85 42.75,43.27 27.75,36.78"/><polygon fill="#7b7c8b" points="27.75,36.78 42.75,43.27 42.75,41.23 27.75,34.74"/><polygon fill="#393957" points="11.00,31.53 12.00,31.96 12.75,31.38 11.75,30.95"/><polygon fill="#2f3246" points="9.00,34.74 20.00,39.50 20.00,37.46 9.00,32.70"/><polygon fill="#2f2f47" points="37.25,35.01 38.75,33.85 38.75,31.81 37.25,32.97"/><polygon fill="#b8b9cf" points="37.75,39.07 42.75,41.23 48.00,37.19 43.00,35.03"/><polygon fill="#cf824c" points="12.00,30.94 14.00,31.80 15.50,30.65 13.50,29.79"/><polygon fill="#aa6b3e" points="14.00,32.82 15.50,31.67 15.50,30.65 14.00,31.80"/><polygon fill="#9798aa" points="42.75,43.27 48.00,39.23 48.00,37.19 42.75,41.23"/><polygon fill="#8b5733" points="12.00,31.96 14.00,32.82 14.00,31.80 12.00,30.94"/><polygon fill="#26263a" points="11.00,33.57 20.00,37.46 20.00,35.42 11.00,31.53"/><polygon fill="#393957" points="14.00,32.82 20.00,35.42 20.75,34.84 14.75,32.25"/><polygon fill="#393957" points="23.75,32.54 32.75,36.43 34.25,35.28 25.25,31.38"/><polygon fill="#2f2f47" points="36.00,51.52 48.00,42.29 48.00,39.23 36.00,48.46"/><polygon fill="#26263a" points="23.75,34.58 32.75,38.47 32.75,36.43 23.75,32.54"/><polygon fill="#393d55" points="31.00,44.26 43.00,35.03 43.00,32.99 31.00,42.22"/><polygon fill="#464a68" points="29.00,41.36 31.00,42.22 43.00,32.99 41.00,32.12"/><polygon fill="#464a68" points="20.75,36.88 29.75,40.78 32.75,38.47 23.75,34.58"/><polygon fill="#26263a" points="20.00,44.60 36.00,51.52 36.00,48.46 20.00,41.54"/><polygon fill="#2f2f47" points="32.75,38.47 34.25,37.32 34.25,35.28 32.75,36.43"/><polygon fill="#393957" points="20.00,41.54 36.00,48.46 36.75,47.89 20.75,40.96"/><polygon fill="#7b7c8b" points="21.75,41.40 36.75,47.89 36.75,45.85 21.75,39.36"/><polygon fill="#2f3246" points="20.00,39.50 31.00,44.26 31.00,42.22 20.00,37.46"/><polygon fill="#b8b9cf" points="31.75,43.68 36.75,45.85 42.00,41.81 37.00,39.65"/><polygon fill="#26263a" points="20.00,37.46 29.00,41.36 29.00,39.32 20.00,35.42"/><polygon fill="#393957" points="20.00,35.42 29.00,39.32 29.75,38.74 20.75,34.84"/><polygon fill="#9798aa" points="36.75,47.89 42.00,43.85 42.00,41.81 36.75,45.85"/><polygon fill="#2f2f47" points="29.00,41.36 29.75,40.78 29.75,38.74 29.00,39.32"/></svg>