<svg xmlns="http://www.w3.org/2000/svg" viewBox="0 0 64 64"><polygon fill="#393957" points="16.75,27.05 17.75,27.48 29.00,18.83 28.00,18.39"/><polygon fill="#393957" points="23.00,23.44 38.00,29.93 38.75,29.36 23.75,22.87"/><polygon fill="#7b7c8b" points="23.75,22.87 38.75,29.36 38.75,27.32 23.75,20.83"/><polygon fill="#9798aa" points="38.75,29.36 44.00,25.32 44.00,23.28 38.75,27.32"/><polygon fill="#8e345b" points="19.75,16.58 32.75,22.21 41.00,15.86 28.00,10.23"/><polygon fill="#8e345b" points="38.75,17.59 41.75,18.89 44.00,17.16 41.00,15.86"/><polygon fill="#393957" points="32.75,33.97 33.75,34.41 45.00,25.75 44.00,25.32"/><polygon fill="#393957" points="16.00,27.63 32.00,34.55 32.75,33.97 16.75,27.05"/><polygon fill="#393957" points="37.25,17.72 38.25,18.16 39.75,17.00 38.75,16.57"/><polygon fill="#62687b" points="17.75,27.48 32.75,33.97 32.75,31.93 17.75,25.44"/><polygon fill="#393957" points="39.25,18.59 40.25,19.02 41.75,17.87 40.75,17.44"/><polygon fill="#a3855e" points="39.25,18.59 40.75,17.44 40.75,16.42 39.25,17.57"/><polygon fill="#c7a273" points="38.25,17.14 39.25,17.57 40.75,16.42 39.75,15.98"/><polygon fill="#393957" points="4.75,36.28 5.75,36.71 17.00,28.06 16.00,27.63"/><polygon fill="#856d4d" points="38.25,18.16 39.25,18.59 39.25,17.57 38.25,17.14"/><polygon fill="#797f96" points="32.75,33.97 38.00,29.93 38.00,27.89 32.75,31.93"/><polygon fill="#ced0df" points="43.75,29.48 54.75,34.24 60.00,30.20 49.00,25.44"/><polygon fill="#393957" points="39.00,30.37 54.00,36.86 54.75,36.28 39.75,29.79"/><polygon fill="#8a8b95" points="39.75,29.79 54.75,36.28 54.75,34.24 39.75,27.75"/><polygon fill="#2f2f47" points="37.00,34.67 49.00,25.44 49.00,23.40 37.00,32.63"/><polygon fill="#2f2f47" points="35.75,23.50 41.75,18.89 41.75,17.87 35.75,22.48"/><polygon fill="#393957" points="35.00,31.77 37.00,32.63 49.00,23.40 47.00,22.54"/><polygon fill="#8e345b" points="16.00,19.47 32.00,26.39 35.75,23.50 19.75,16.58"/><polygon fill="#a9abb7" points="35.00,31.77 47.00,22.54 47.00,20.50 35.00,29.73"/><polygon fill="#393957" points="32.75,21.19 35.75,22.48 40.25,19.02 37.25,17.72"/><polygon fill="#ced0df" points="33.00,28.86 35.00,29.73 47.00,20.50 45.00,19.63"/><polygon fill="#742b4b" points="33.00,28.86 45.00,19.63 45.00,17.59 33.00,26.82"/><polygon fill="#8e345b" points="32.00,26.39 33.00,26.82 45.00,17.59 44.00,17.16"/><polygon fill="#a9abb7" points="54.75,36.28 60.00,32.24 60.00,30.20 54.75,34.24"/><polygon fill="#22343d" points="10.75,24.52 11.75,24.96 12.50,24.38 11.50,23.95"/><polygon fill="#26263a" points="32.75,22.21 35.75,23.50 35.75,22.48 32.75,21.19"/><polygon fill="#393957" points="11.00,32.67 26.00,39.17 26.75,38.59 11.75,32.10"/><polygon fill="#62687b" points="11.75,32.10 26.75,38.59 26.75,36.55 11.75,30.06"/><polygon fill="#2f2f47" points="48.00,44.53 60.00,35.30 60.00,32.24 48.00,41.47"/><polygon fill="#22343d" points="13.75,25.82 14.75,26.26 15.50,25.68 14.50,25.25"/><polygon fill="#8e345b" points="11.50,22.93 27.50,29.85 32.00,26.39 16.00,19.47"/><polygon fill="#797f96" points="26.75,38.59 32.00,34.55 32.00,32.51 26.75,36.55"/><polygon fill="#b8b9cf" points="37.75,34.10 48.75,38.86 54.00,34.82 43.00,30.06"/><polygon fill="#393957" points="32.00,34.55 48.00,41.47 48.75,40.90 32.75,33.97"/><polygon fill="#22343d" points="16.75,27.12 17.75,27.55 18.50,26.98 17.50,26.54"/><polygon fill="#22343d" points="6.50,29.00 8.50,29.86 14.50,25.25 12.50,24.38"/><polygon fill="#393d55" points="6.50,29.00 11.75,24.96 11.75,22.92 6.50,26.96"/><polygon fill="#7b7c8b" points="33.75,34.41 48.75,40.90 48.75,38.86 33.75,32.37"/><polygon fill="#5f233d" points="11.50,23.95 27.50,30.87 27.50,29.85 11.50,22.93"/><polygon fill="#464a68" points="4.75,27.10 5.75,27.53 11.75,22.92 10.75,22.48"/><polygon fill="#22343d" points="19.75,28.42 20.75,28.85 21.50,28.28 20.50,27.84"/><polygon fill="#393957" points="20.75,43.20 21.75,43.64 33.00,34.98 32.00,34.55"/><polygon fill="#22343d" points="9.50,30.29 11.50,31.16 17.50,26.54 15.50,25.68"/><polygon fill="#9798aa" points="48.75,40.90 54.00,36.86 54.00,34.82 48.75,38.86"/><polygon fill="#393d55" points="9.50,30.29 14.75,26.26 14.75,24.22 9.50,28.25"/><polygon fill="#26263a" points="4.00,39.92 20.00,46.84 20.00,43.78 4.00,36.86"/><polygon fill="#464a68" points="7.75,28.40 8.75,28.83 14.75,24.22 13.75,23.78"/><polygon fill="#393957" points="4.00,36.86 20.00,43.78 20.75,43.20 4.75,36.28"/><polygon fill="#ced0df" points="28.50,32.32 30.50,33.19 35.00,29.73 33.00,28.86"/><polygon fill="#742b4b" points="28.50,32.32 33.00,28.86 33.00,26.82 28.50,30.28"/><polygon fill="#22343d" points="22.75,29.72 23.75,30.15 24.50,29.57 23.50,29.14"/><polygon fill="#22343d" points="12.50,31.59 14.50,32.46 20.50,27.84 18.50,26.98"/><polygon fill="#62687b" points="5.75,36.71 20.75,43.20 20.75,41.16 5.75,34.67"/><polygon fill="#8e345b" points="27.50,29.85 28.50,30.28 33.00,26.82 32.00,26.39"/><polygon fill="#393d55" points="5.75,28.55 6.50,27.98 6.50,26.96 5.75,27.53"/><polygon fill="#393d55" points="12.50,31.59 17.75,27.55 17.75,25.51 12.50,29.55"/><polygon fill="#2f3246" points="4.75,28.12 5.75,28.55 5.75,27.53 4.75,27.10"/><polygon fill="#ced0df" points="5.75,28.55 7.75,29.42 8.50,28.84 6.50,27.98"/><polygon fill="#5f233d" points="26.50,31.46 27.50,31.89 27.50,30.87 26.50,30.44"/><polygon fill="#464a68" points="10.75,29.70 11.75,30.13 17.75,25.51 16.75,25.08"/><polygon fill="#797f96" points="20.75,43.20 26.00,39.17 26.00,37.13 20.75,41.16"/><polygon fill="#22343d" points="15.50,32.89 17.50,33.76 23.50,29.14 21.50,28.28"/><polygon fill="#5f233d" points="27.50,31.89 28.50,32.32 28.50,30.28 27.50,29.85"/><polygon fill="#26263a" points="4.00,34.82 20.00,41.74 20.00,39.70 4.00,32.78"/><polygon fill="#393d55" points="8.75,29.85 9.50,29.27 9.50,28.25 8.75,28.83"/><polygon fill="#393d55" points="15.50,32.89 20.75,28.85 20.75,26.81 15.50,30.85"/><polygon fill="#2f3246" points="7.75,29.42 8.75,29.85 8.75,28.83 7.75,28.40"/><polygon fill="#b8b9cf" points="31.75,38.71 42.75,43.47 48.00,39.43 37.00,34.67"/><polygon fill="#ced0df" points="8.75,29.85 10.75,30.72 11.50,30.14 9.50,29.27"/><polygon fill="#393957" points="24.50,39.85 26.50,40.71 37.00,32.63 35.00,31.77"/><polygon fill="#a9abb7" points="24.50,39.85 35.00,31.77 35.00,29.73 24.50,37.81"/><polygon fill="#393957" points="27.00,39.60 42.00,46.09 42.75,45.51 27.75,39.02"/><polygon fill="#464a68" points="13.75,31.00 14.75,31.43 20.75,26.81 19.75,26.38"/><polygon fill="#7b7c8b" points="27.75,39.02 42.75,45.51 42.75,43.47 27.75,36.98"/><polygon fill="#2f3246" points="4.00,32.78 20.00,39.70 20.00,37.66 4.00,30.74"/><polygon fill="#2f2f47" points="25.00,43.91 37.00,34.67 37.00,32.63 25.00,41.87"/><polygon fill="#22343d" points="18.50,34.19 20.50,35.06 26.50,30.44 24.50,29.57"/><polygon fill="#ced0df" points="20.50,36.08 21.50,36.51 27.50,31.89 26.50,31.46"/><polygon fill="#1c2b32" points="20.50,36.08 26.50,31.46 26.50,30.44 20.50,35.06"/><polygon fill="#393d55" points="11.75,31.15 12.50,30.57 12.50,29.55 11.75,30.13"/><polygon fill="#393d55" points="18.50,34.19 23.75,30.15 23.75,28.11 18.50,32.15"/><polygon fill="#2f3246" points="10.75,30.72 11.75,31.15 11.75,30.13 10.75,29.70"/><polygon fill="#ced0df" points="11.75,31.15 13.75,32.02 14.50,31.44 12.50,30.57"/><polygon fill="#8a8b95" points="4.00,30.74 20.00,37.66 20.00,35.62 4.00,28.70"/><polygon fill="#464a68" points="16.75,32.29 17.75,32.73 23.75,28.11 22.75,27.68"/><polygon fill="#ced0df" points="21.50,36.51 24.50,37.81 30.50,33.19 27.50,31.89"/><polygon fill="#9798aa" points="42.75,45.51 48.00,41.47 48.00,39.43 42.75,43.47"/><polygon fill="#ced0df" points="4.00,28.70 20.00,35.62 20.75,35.05 4.75,28.12"/><polygon fill="#393d55" points="14.75,32.45 15.50,31.87 15.50,30.85 14.75,31.43"/><polygon fill="#2f3246" points="13.75,32.02 14.75,32.45 14.75,31.43 13.75,31.00"/><polygon fill="#ced0df" points="14.75,32.45 16.75,33.31 17.50,32.74 15.50,31.87"/><polygon fill="#2f2f47" points="36.00,53.77 48.00,44.53 48.00,41.47 36.00,50.71"/><polygon fill="#393d55" points="17.75,33.75 18.50,33.17 18.50,32.15 17.75,32.73"/><polygon fill="#2f3246" points="16.75,33.31 17.75,33.75 17.75,32.73 16.75,32.29"/><polygon fill="#ced0df" points="17.75,33.75 20.75,35.05 21.50,34.47 18.50,33.17"/><polygon fill="#26263a" points="20.00,41.74 25.00,43.91 25.00,41.87 20.00,39.70"/><polygon fill="#26263a" points="20.00,46.84 36.00,53.77 36.00,50.71 20.00,43.78"/><polygon fill="#b8b9cf" points="25.75,43.33 36.75,48.09 42.00,44.05 31.00,39.29"/><polygon fill="#393957" points="20.00,43.78 36.00,50.71 36.75,50.13 20.75,43.20"/><polygon fill="#7b7c8b" points="21.75,43.64 36.75,50.13 36.75,48.09 21.75,41.60"/><polygon fill="#9798aa" points="36.75,50.13 42.00,46.09 42.00,44.05 36.75,48.09"/><polygon fill="#2f3246" points="20.00,39.70 36.00,46.63 36.00,44.59 20.00,37.66"/><polygon fill="#ced0df" points="20.00,35.62 35.00,42.11 36.50,40.96 21.50,34.47"/><polygon fill="#8a8b95" points="20.00,37.66 35.00,44.15 35.00,42.11 20.00,35.62"/><polygon fill="#393d55" points="36.00,46.63 37.50,45.47 37.50,43.43 36.00,44.59"/><polygon fill="#464a68" points="35.00,44.15 36.00,44.59 37.50,43.43 36.50,43.00"/><polygon fill="#a9abb7" points="35.00,44.15 36.50,43.00 36.50,40.96 35.00,42.11"/></svg>