<svg xmlns="http://www.w3.org/2000/svg" viewBox="0 0 64 64"><polygon fill="#38484f" points="15.67,47.08 30.60,53.54 30.60,38.31 15.67,31.85"/><polygon fill="#536b76" points="17.07,30.77 32.00,37.23 32.70,36.70 17.77,30.24"/><polygon fill="#536b76" points="15.67,31.85 30.60,38.31 32.00,37.23 17.07,30.77"/><polygon fill="#566268" points="15.67,31.85 30.60,38.31 30.60,33.55 15.67,27.09"/><polygon fill="#80939b" points="15.67,27.09 30.60,33.55 31.30,33.01 16.37,26.55"/><polygon fill="#566268" points="16.37,26.55 31.30,33.01 31.30,31.11 16.37,24.65"/><polygon fill="#38484f" points="30.60,53.54 45.53,60.00 45.53,44.77 30.60,38.31"/><polygon fill="#26263a" points="15.67,27.09 30.60,33.55 30.60,31.65 15.67,25.19"/><polygon fill="#393957" points="15.67,25.19 30.60,31.65 31.30,31.11 16.37,24.65"/><polygon fill="#445861" points="46.93,58.92 47.63,58.38 47.63,43.16 46.93,43.70"/><polygon fill="#536b76" points="32.00,37.23 46.93,43.70 47.63,43.16 32.70,36.70"/><polygon fill="#445861" points="45.53,60.00 46.93,58.92 46.93,43.70 45.53,44.77"/><polygon fill="#566268" points="15.67,25.19 30.60,31.65 30.60,23.08 15.67,16.62"/><polygon fill="#536b76" points="30.60,38.31 45.53,44.77 46.93,43.70 32.00,37.23"/><polygon fill="#80939b" points="30.60,33.55 40.86,37.99 41.56,37.46 31.30,33.01"/><polygon fill="#566268" points="30.60,38.31 45.53,44.77 45.53,40.01 30.60,33.55"/><polygon fill="#566268" points="31.30,33.01 41.56,37.46 41.56,35.55 31.30,31.11"/><polygon fill="#26263a" points="30.60,33.55 40.86,37.99 40.86,36.09 30.60,31.65"/><polygon fill="#393957" points="30.60,31.65 40.86,36.09 41.56,35.55 31.30,31.11"/><polygon fill="#566268" points="15.67,16.62 30.60,23.08 30.60,15.47 15.67,9.01"/><polygon fill="#2f2f47" points="40.86,37.99 41.56,37.46 41.56,35.55 40.86,36.09"/><polygon fill="#344550" points="17.07,5.08 32.00,11.54 33.40,10.46 18.47,4.00"/><polygon fill="#566268" points="40.86,37.99 45.53,40.01 45.53,38.11 40.86,36.09"/><polygon fill="#566268" points="30.60,31.65 45.53,38.11 45.53,29.54 30.60,23.08"/><polygon fill="#232e36" points="15.67,9.01 30.60,15.47 30.60,12.61 15.67,6.15"/><polygon fill="#69797f" points="46.93,43.70 47.63,43.16 47.63,27.93 46.93,28.47"/><polygon fill="#344550" points="15.67,6.15 30.60,12.61 32.00,11.54 17.07,5.08"/><polygon fill="#69797f" points="45.53,44.77 46.93,43.70 46.93,28.47 45.53,29.54"/><polygon fill="#566268" points="30.60,23.08 45.53,29.54 45.53,21.93 30.60,15.47"/><polygon fill="#344550" points="32.00,11.54 46.93,18.00 48.33,16.92 33.40,10.46"/><polygon fill="#69797f" points="46.93,28.47 47.63,27.93 47.63,20.31 46.93,20.85"/><polygon fill="#232e36" points="30.60,15.47 45.53,21.93 45.53,19.07 30.60,12.61"/><polygon fill="#69797f" points="45.53,29.54 46.93,28.47 46.93,20.85 45.53,21.93"/><polygon fill="#344550" points="30.60,12.61 45.53,19.07 46.93,18.00 32.00,11.54"/><polygon fill="#2b3942" points="46.93,20.85 48.33,19.78 48.33,16.92 46.93,18.00"/><polygon fill="#2b3942" points="45.53,21.93 46.93,20.85 46.93,18.00 45.53,19.07"/></svg>