<svg xmlns="http://www.w3.org/2000/svg" viewBox="0 0 64 64"><polygon fill="#80939b" points="35.23,25.63 43.52,29.22 45.59,27.63 37.30,24.04"/><polygon fill="#80939b" points="21.63,33.88 23.47,34.67 37.30,24.04 35.46,23.24"/><polygon fill="#2f2f47" points="54.12,38.73 56.19,37.13 56.19,33.37 54.12,34.97"/><polygon fill="#26263a" points="51.36,37.53 54.12,38.73 54.12,34.97 51.36,33.77"/><polygon fill="#48a4ed" points="35.46,23.74 42.83,26.93 43.52,26.40 36.15,23.21"/><polygon fill="#80939b" points="44.90,28.16 51.36,30.95 52.05,30.42 45.59,27.63"/><polygon fill="#48a4ed" points="29.00,27.60 29.93,28.00 36.15,23.21 35.23,22.81"/><polygon fill="#80939b" points="43.52,29.22 51.82,32.81 53.20,31.75 44.90,28.16"/><polygon fill="#80939b" points="54.12,32.15 55.04,32.55 55.73,32.01 54.81,31.61"/><polygon fill="#48a4ed" points="42.83,26.93 50.20,30.12 50.89,29.59 43.52,26.40"/><polygon fill="#edf0ec" points="29.93,25.18 37.30,28.37 42.83,24.11 35.46,20.92"/><polygon fill="#9fa19e" points="29.93,28.00 37.30,31.19 37.30,28.37 29.93,25.18"/><polygon fill="#80939b" points="35.23,8.71 43.52,12.30 45.59,10.70 37.30,7.11"/><polygon fill="#26263a" points="51.36,30.95 54.12,32.15 54.12,18.05 51.36,16.85"/><polygon fill="#2f2f47" points="54.12,32.15 54.81,31.61 54.81,17.51 54.12,18.05"/><polygon fill="#48a4ed" points="23.47,31.85 31.77,35.44 37.30,31.19 29.00,27.60"/><polygon fill="#2f2f47" points="54.81,34.44 56.19,33.37 56.19,7.05 54.81,8.11"/><polygon fill="#edf0ec" points="37.30,28.37 44.67,31.56 50.20,27.30 42.83,24.11"/><polygon fill="#48a4ed" points="44.67,34.38 45.59,34.78 51.82,29.99 50.89,29.59"/><polygon fill="#69797f" points="41.91,45.47 55.73,34.83 55.73,32.01 41.91,42.65"/><polygon fill="#c2c5c2" points="44.67,34.38 50.20,30.12 50.20,27.30 44.67,31.56"/><polygon fill="#80939b" points="40.06,41.85 41.91,42.65 55.04,32.55 53.20,31.75"/><polygon fill="#80939b" points="21.63,16.95 23.47,17.75 37.30,7.11 35.46,6.32"/><polygon fill="#48a4ed" points="35.46,6.82 42.83,10.01 43.52,9.48 36.15,6.29"/><polygon fill="#80939b" points="44.90,11.24 51.36,14.03 52.05,13.50 45.59,10.70"/><polygon fill="#9fa19e" points="37.30,31.19 44.67,34.38 44.67,31.56 37.30,28.37"/><polygon fill="#48a4ed" points="29.00,10.68 29.93,11.07 36.15,6.29 35.23,5.89"/><polygon fill="#3b86c2" points="40.06,41.85 51.82,32.81 51.82,29.99 40.06,39.03"/><polygon fill="#48a4ed" points="23.70,32.78 31.08,35.97 31.77,35.44 24.40,32.25"/><polygon fill="#48a4ed" points="17.94,36.11 18.87,36.51 24.40,32.25 23.47,31.85"/><polygon fill="#80939b" points="9.88,42.92 11.72,43.71 23.47,34.67 21.63,33.88"/><polygon fill="#80939b" points="43.52,12.30 51.82,15.89 53.20,14.83 44.90,11.24"/><polygon fill="#48a4ed" points="23.01,32.37 30.39,35.57 31.08,35.03 23.70,31.84"/><polygon fill="#48a4ed" points="31.77,35.44 40.06,39.03 45.59,34.78 37.30,31.19"/><polygon fill="#306e9f" points="23.01,33.32 30.39,36.51 30.39,35.57 23.01,32.37"/><polygon fill="#48a4ed" points="21.63,34.38 29.00,37.57 30.39,36.51 23.01,33.32"/><polygon fill="#80939b" points="54.12,15.22 55.04,15.62 55.73,15.09 54.81,14.69"/><polygon fill="#48a4ed" points="42.83,10.01 50.20,13.20 50.89,12.67 43.52,9.48"/><polygon fill="#48a4ed" points="20.94,33.97 28.31,37.16 29.00,36.63 21.63,33.44"/><polygon fill="#306e9f" points="20.94,34.91 28.31,38.10 28.31,37.16 20.94,33.97"/><polygon fill="#48a4ed" points="19.56,35.97 26.93,39.16 28.31,38.10 20.94,34.91"/><polygon fill="#edf0ec" points="29.93,8.25 37.30,11.45 42.83,7.19 35.46,4.00"/><polygon fill="#48a4ed" points="31.08,35.97 38.45,39.16 39.14,38.63 31.77,35.44"/><polygon fill="#26263a" points="51.36,14.03 54.12,15.22 54.12,8.64 51.36,7.45"/><polygon fill="#2f2f47" points="54.12,15.22 54.81,14.69 54.81,8.11 54.12,8.64"/><polygon fill="#393957" points="51.36,7.45 54.12,8.64 56.19,7.05 53.43,5.85"/><polygon fill="#48a4ed" points="18.87,35.57 26.24,38.76 26.93,38.22 19.56,35.03"/><polygon fill="#48a4ed" points="30.39,35.57 37.76,38.76 38.45,38.22 31.08,35.03"/><polygon fill="#306e9f" points="18.87,36.51 26.24,39.70 26.24,38.76 18.87,35.57"/><polygon fill="#306e9f" points="30.39,36.51 37.76,39.70 37.76,38.76 30.39,35.57"/><polygon fill="#48a4ed" points="29.00,37.57 36.38,40.76 37.76,39.70 30.39,36.51"/><polygon fill="#9fa19e" points="29.93,11.07 37.30,14.27 37.30,11.45 29.93,8.25"/><polygon fill="#7b7c8b" points="12.41,48.82 20.71,52.41 20.71,49.59 12.41,46.00"/><polygon fill="#3b86c2" points="37.76,39.70 38.45,39.16 38.45,38.22 37.76,38.76"/><polygon fill="#48a4ed" points="23.47,14.93 31.77,18.52 37.30,14.27 29.00,10.68"/><polygon fill="#48a4ed" points="28.31,37.16 35.69,40.35 36.38,39.82 29.00,36.63"/><polygon fill="#306e9f" points="28.31,38.10 35.69,41.29 35.69,40.35 28.31,37.16"/><polygon fill="#48a4ed" points="26.93,39.16 34.30,42.36 35.69,41.29 28.31,38.10"/><polygon fill="#48a4ed" points="11.72,40.89 20.02,44.48 26.24,39.70 17.94,36.11"/><polygon fill="#edf0ec" points="37.30,11.45 44.67,14.64 50.20,10.38 42.83,7.19"/><polygon fill="#48a4ed" points="44.67,17.46 45.59,17.86 51.82,13.07 50.89,12.67"/><polygon fill="#69797f" points="41.91,28.55 55.73,17.91 55.73,15.09 41.91,25.73"/><polygon fill="#48a4ed" points="33.61,42.89 34.53,43.29 40.06,39.03 39.14,38.63"/><polygon fill="#3b86c2" points="35.69,41.29 36.38,40.76 36.38,39.82 35.69,40.35"/><polygon fill="#c2c5c2" points="44.67,17.46 50.20,13.20 50.20,10.38 44.67,14.64"/><polygon fill="#80939b" points="40.06,24.93 41.91,25.73 55.04,15.62 53.20,14.83"/><polygon fill="#48a4ed" points="26.24,38.76 33.61,41.95 34.30,41.42 26.93,38.22"/><polygon fill="#306e9f" points="26.24,39.70 33.61,42.89 33.61,41.95 26.24,38.76"/><polygon fill="#566268" points="7.81,47.33 17.94,51.72 17.94,49.84 7.81,45.45"/><polygon fill="#9798aa" points="29.00,56.00 35.23,51.22 35.23,48.40 29.00,53.18"/><polygon fill="#9fa19e" points="37.30,14.27 44.67,17.46 44.67,14.64 37.30,11.45"/><polygon fill="#8a8b95" points="7.81,45.45 13.34,47.84 13.34,43.14 7.81,40.75"/><polygon fill="#3b86c2" points="40.06,24.93 51.82,15.89 51.82,13.07 40.06,22.11"/><polygon fill="#7b7c8b" points="20.71,52.41 29.00,56.00 29.00,53.18 20.71,49.59"/><polygon fill="#48a4ed" points="23.70,15.86 31.08,19.05 31.77,18.52 24.40,15.33"/><polygon fill="#48a4ed" points="17.94,19.18 18.87,19.58 24.40,15.33 23.47,14.93"/><polygon fill="#80939b" points="28.31,50.89 30.16,51.69 41.91,42.65 40.06,41.85"/><polygon fill="#69797f" points="30.16,52.63 41.91,43.59 41.91,42.65 30.16,51.69"/><polygon fill="#69797f" points="28.08,56.11 41.91,45.47 41.91,43.59 28.08,54.23"/><polygon fill="#3b86c2" points="28.31,50.89 40.06,41.85 40.06,39.03 28.31,48.07"/><polygon fill="#3b86c2" points="33.61,42.89 34.30,42.36 34.30,41.42 33.61,41.95"/><polygon fill="#80939b" points="9.88,25.99 11.72,26.79 23.47,17.75 21.63,16.95"/><polygon fill="#8a8b95" points="13.34,47.84 17.94,49.84 17.94,48.90 13.34,46.90"/><polygon fill="#48a4ed" points="23.01,15.45 30.39,18.64 31.08,18.11 23.70,14.92"/><polygon fill="#48a4ed" points="31.77,18.52 40.06,22.11 45.59,17.86 37.30,14.27"/><polygon fill="#306e9f" points="23.01,16.39 30.39,19.58 30.39,18.64 23.01,15.45"/><polygon fill="#ced0df" points="7.81,40.75 17.94,45.14 20.02,43.54 9.88,39.16"/><polygon fill="#48a4ed" points="21.63,17.46 29.00,20.65 30.39,19.58 23.01,16.39"/><polygon fill="#48a4ed" points="20.02,44.48 28.31,48.07 34.53,43.29 26.24,39.70"/><polygon fill="#2f3246" points="12.64,47.44 14.49,48.23 14.49,46.35 12.64,45.56"/><polygon fill="#2f3246" points="14.49,48.23 17.25,49.43 17.25,48.49 14.49,47.29"/><polygon fill="#464a68" points="12.64,45.56 17.25,47.55 17.94,47.02 13.34,45.02"/><polygon fill="#8a8b95" points="13.34,45.02 17.94,47.02 17.94,45.14 13.34,43.14"/><polygon fill="#48a4ed" points="20.94,17.05 28.31,20.24 29.00,19.71 21.63,16.52"/><polygon fill="#306e9f" points="20.94,17.99 28.31,21.18 28.31,20.24 20.94,17.05"/><polygon fill="#566268" points="17.94,51.72 24.40,54.51 24.40,52.63 17.94,49.84"/><polygon fill="#48a4ed" points="19.56,19.05 26.93,22.24 28.31,21.18 20.94,17.99"/><polygon fill="#48a4ed" points="31.08,19.05 38.45,22.24 39.14,21.71 31.77,18.52"/><polygon fill="#57bcec" points="13.80,46.89 16.56,48.08 17.25,47.55 14.49,46.35"/><polygon fill="#3a7e9e" points="13.80,47.83 16.56,49.02 16.56,48.08 13.80,46.89"/><polygon fill="#8a8b95" points="17.94,49.84 24.40,52.63 24.40,51.69 17.94,48.90"/><polygon fill="#2f2f47" points="26.47,60.00 28.54,58.40 28.54,54.64 26.47,56.24"/><polygon fill="#2f3246" points="17.25,49.43 22.78,51.82 22.78,50.88 17.25,48.49"/><polygon fill="#48a4ed" points="30.39,18.64 37.76,21.83 38.45,21.30 31.08,18.11"/><polygon fill="#48a4ed" points="18.87,18.64 26.24,21.83 26.93,21.30 19.56,18.11"/><polygon fill="#306e9f" points="30.39,19.58 37.76,22.77 37.76,21.83 30.39,18.64"/><polygon fill="#306e9f" points="18.87,19.58 26.24,22.77 26.24,21.83 18.87,18.64"/><polygon fill="#48a4ed" points="29.00,20.65 36.38,23.84 37.76,22.77 30.39,19.58"/><polygon fill="#57bcec" points="16.56,48.08 19.33,49.28 20.02,48.75 17.25,47.55"/><polygon fill="#7b7c8b" points="12.41,31.90 20.71,35.49 20.71,32.67 12.41,29.08"/><polygon fill="#3a7e9e" points="16.56,49.02 19.33,50.22 19.33,49.28 16.56,48.08"/><polygon fill="#464a68" points="17.25,47.55 22.78,49.94 23.47,49.41 17.94,47.02"/><polygon fill="#ced0df" points="17.94,45.14 24.40,47.93 26.47,46.33 20.02,43.54"/><polygon fill="#479ac2" points="19.33,50.22 20.02,49.69 20.02,48.75 19.33,49.28"/><polygon fill="#8a8b95" points="17.94,47.02 24.40,49.81 24.40,47.93 17.94,45.14"/><polygon fill="#2f3246" points="20.02,49.69 22.78,50.88 22.78,49.94 20.02,48.75"/><polygon fill="#8a8b95" points="23.47,51.29 24.40,51.69 24.40,49.81 23.47,49.41"/><polygon fill="#393d55" points="22.78,51.82 23.47,51.29 23.47,49.41 22.78,49.94"/><polygon fill="#566268" points="27.16,55.71 28.08,56.11 28.08,54.23 27.16,53.83"/><polygon fill="#3b86c2" points="37.76,22.77 38.45,22.24 38.45,21.30 37.76,21.83"/><polygon fill="#48a4ed" points="28.31,20.24 35.69,23.43 36.38,22.90 29.00,19.71"/><polygon fill="#306e9f" points="28.31,21.18 35.69,24.37 35.69,23.43 28.31,20.24"/><polygon fill="#48a4ed" points="26.93,22.24 34.30,25.43 35.69,24.37 28.31,21.18"/><polygon fill="#ced0df" points="25.78,46.87 28.54,48.06 29.23,47.53 26.47,46.33"/><polygon fill="#48a4ed" points="11.72,23.97 20.02,27.56 26.24,22.77 17.94,19.18"/><polygon fill="#a9abb7" points="28.08,54.23 30.16,52.63 30.16,47.93 28.08,49.53"/><polygon fill="#48a4ed" points="33.61,25.97 34.53,26.36 40.06,22.11 39.14,21.71"/><polygon fill="#8a8b95" points="27.16,53.83 28.08,54.23 28.08,49.53 27.16,49.13"/><polygon fill="#3b86c2" points="35.69,24.37 36.38,23.84 36.38,22.90 35.69,23.43"/><polygon fill="#48a4ed" points="26.24,21.83 33.61,25.03 34.30,24.49 26.93,21.30"/><polygon fill="#306e9f" points="26.24,22.77 33.61,25.97 33.61,25.03 26.24,21.83"/><polygon fill="#566268" points="7.81,30.41 17.94,34.80 17.94,32.92 7.81,28.53"/><polygon fill="#ced0df" points="27.16,49.13 28.08,49.53 30.16,47.93 29.23,47.53"/><polygon fill="#9798aa" points="29.00,39.08 35.23,34.29 35.23,31.47 29.00,36.26"/><polygon fill="#8a8b95" points="7.81,28.53 13.34,30.92 13.34,26.22 7.81,23.83"/><polygon fill="#7b7c8b" points="20.71,35.49 29.00,39.08 29.00,36.26 20.71,32.67"/><polygon fill="#80939b" points="28.31,33.97 30.16,34.77 41.91,25.73 40.06,24.93"/><polygon fill="#69797f" points="30.16,35.71 41.91,26.67 41.91,25.73 30.16,34.77"/><polygon fill="#69797f" points="28.08,39.18 41.91,28.55 41.91,26.67 28.08,37.30"/><polygon fill="#3b86c2" points="33.61,25.97 34.30,25.43 34.30,24.49 33.61,25.03"/><polygon fill="#3b86c2" points="28.31,33.97 40.06,24.93 40.06,22.11 28.31,31.15"/><polygon fill="#8a8b95" points="13.34,30.92 17.94,32.92 17.94,31.98 13.34,29.98"/><polygon fill="#ced0df" points="7.81,23.83 17.94,28.22 20.02,26.62 9.88,22.23"/><polygon fill="#48a4ed" points="20.02,27.56 28.31,31.15 34.53,26.36 26.24,22.77"/><polygon fill="#2f3246" points="12.64,30.51 14.49,31.31 14.49,29.43 12.64,28.63"/><polygon fill="#2f2f47" points="27.16,49.13 28.54,48.06 28.54,37.72 27.16,38.79"/><polygon fill="#26263a" points="23.70,58.80 26.47,60.00 26.47,29.92 23.70,28.72"/><polygon fill="#2f3246" points="14.49,31.31 17.25,32.51 17.25,31.57 14.49,30.37"/><polygon fill="#464a68" points="12.64,28.63 17.25,30.63 17.94,30.10 13.34,28.10"/><polygon fill="#8a8b95" points="13.34,28.10 17.94,30.10 17.94,28.22 13.34,26.22"/><polygon fill="#566268" points="17.94,34.80 24.40,37.59 24.40,35.71 17.94,32.92"/><polygon fill="#2f2f47" points="26.47,56.24 27.16,55.71 27.16,29.38 26.47,29.92"/><polygon fill="#57bcec" points="13.80,29.96 16.56,31.16 17.25,30.63 14.49,29.43"/><polygon fill="#8a8b95" points="17.94,32.92 24.40,35.71 24.40,34.77 17.94,31.98"/><polygon fill="#3a7e9e" points="13.80,30.90 16.56,32.10 16.56,31.16 13.80,29.96"/><polygon fill="#2f3246" points="17.25,32.51 22.78,34.90 22.78,33.96 17.25,31.57"/><polygon fill="#57bcec" points="16.56,31.16 19.33,32.36 20.02,31.82 17.25,30.63"/><polygon fill="#3a7e9e" points="16.56,32.10 19.33,33.30 19.33,32.36 16.56,31.16"/><polygon fill="#464a68" points="17.25,30.63 22.78,33.02 23.47,32.49 17.94,30.10"/><polygon fill="#ced0df" points="17.94,28.22 24.40,31.01 26.47,29.41 20.02,26.62"/><polygon fill="#479ac2" points="19.33,33.30 20.02,32.76 20.02,31.82 19.33,32.36"/><polygon fill="#8a8b95" points="17.94,30.10 24.40,32.89 24.40,31.01 17.94,28.22"/><polygon fill="#2f3246" points="20.02,32.76 22.78,33.96 22.78,33.02 20.02,31.82"/><polygon fill="#8a8b95" points="23.47,34.37 24.40,34.77 24.40,32.89 23.47,32.49"/><polygon fill="#393d55" points="22.78,34.90 23.47,34.37 23.47,32.49 22.78,33.02"/><polygon fill="#566268" points="27.16,38.79 28.08,39.18 28.08,37.30 27.16,36.91"/><polygon fill="#ced0df" points="25.78,29.94 28.54,31.14 29.23,30.61 26.47,29.41"/><polygon fill="#a9abb7" points="28.08,37.30 30.16,35.71 30.16,31.01 28.08,32.60"/><polygon fill="#8a8b95" points="27.16,36.91 28.08,37.30 28.08,32.60 27.16,32.20"/><polygon fill="#ced0df" points="27.16,32.20 28.08,32.60 30.16,31.01 29.23,30.61"/><polygon fill="#2f2f47" points="27.16,32.20 28.54,31.14 28.54,28.32 27.16,29.38"/><polygon fill="#393957" points="23.70,28.72 26.47,29.92 28.54,28.32 25.78,27.12"/></svg>