<svg xmlns="http://www.w3.org/2000/svg" viewBox="0 0 64 64"><polygon fill="#393957" points="16.75,23.77 17.75,24.21 29.00,15.55 28.00,15.12"/><polygon fill="#b8b9cf" points="23.75,17.55 38.75,24.04 44.00,20.00 29.00,13.51"/><polygon fill="#393957" points="23.00,20.17 38.00,26.66 38.75,26.08 23.75,19.59"/><polygon fill="#7b7c8b" points="23.75,19.59 38.75,26.08 38.75,24.04 23.75,17.55"/><polygon fill="#9798aa" points="38.75,26.08 44.00,22.04 44.00,20.00 38.75,24.04"/><polygon fill="#b8b9cf" points="17.75,22.17 32.75,28.66 38.00,24.62 23.00,18.13"/><polygon fill="#393957" points="32.75,30.70 33.75,31.13 45.00,22.47 44.00,22.04"/><polygon fill="#393957" points="16.00,24.35 32.00,31.27 32.75,30.70 16.75,23.77"/><polygon fill="#7b7c8b" points="17.75,24.21 32.75,30.70 32.75,28.66 17.75,22.17"/><polygon fill="#ced0df" points="39.75,24.47 54.75,30.96 60.00,26.93 45.00,20.43"/><polygon fill="#393957" points="4.75,33.00 5.75,33.44 17.00,24.78 16.00,24.35"/><polygon fill="#9798aa" points="32.75,30.70 38.00,26.66 38.00,24.62 32.75,28.66"/><polygon fill="#b8b9cf" points="11.75,26.78 21.75,31.11 27.00,27.07 17.00,22.74"/><polygon fill="#393957" points="39.00,27.09 54.00,33.58 54.75,33.00 39.75,26.51"/><polygon fill="#8a8b95" points="39.75,26.51 54.75,33.00 54.75,30.96 39.75,24.47"/><polygon fill="#a9abb7" points="54.75,33.00 60.00,28.97 60.00,26.93 54.75,30.96"/><polygon fill="#b8b9cf" points="24.75,28.80 29.75,30.96 32.00,29.23 27.00,27.07"/><polygon fill="#393957" points="11.00,29.40 26.00,35.89 26.75,35.31 11.75,28.82"/><polygon fill="#7b7c8b" points="11.75,28.82 26.75,35.31 26.75,33.27 11.75,26.78"/><polygon fill="#2f2f47" points="48.00,41.26 60.00,32.03 60.00,28.97 48.00,38.20"/><polygon fill="#ced0df" points="33.75,29.09 48.75,35.58 54.00,31.54 39.00,25.05"/><polygon fill="#9798aa" points="26.75,35.31 32.00,31.27 32.00,29.23 26.75,33.27"/><polygon fill="#393957" points="32.00,31.27 48.00,38.20 48.75,37.62 32.75,30.70"/><polygon fill="#b8b9cf" points="5.75,31.40 15.75,35.72 21.00,31.69 11.00,27.36"/><polygon fill="#8a8b95" points="33.75,31.13 48.75,37.62 48.75,35.58 33.75,29.09"/><polygon fill="#393957" points="25.25,28.78 28.25,30.08 29.75,28.92 26.75,27.63"/><polygon fill="#393957" points="20.75,39.93 21.75,40.36 33.00,31.71 32.00,31.27"/><polygon fill="#a9abb7" points="48.75,37.62 54.00,33.58 54.00,31.54 48.75,35.58"/><polygon fill="#26263a" points="4.00,36.64 20.00,43.57 20.00,40.51 4.00,33.58"/><polygon fill="#393957" points="4.00,33.58 20.00,40.51 20.75,39.93 4.75,33.00"/><polygon fill="#ced0df" points="30.75,31.40 45.75,37.89 48.00,36.16 33.00,29.67"/><polygon fill="#393957" points="15.00,34.26 17.00,35.13 26.75,27.63 24.75,26.76"/><polygon fill="#7b7c8b" points="5.75,33.44 20.75,39.93 20.75,37.89 5.75,31.40"/><polygon fill="#ced0df" points="25.00,29.34 26.00,29.77 28.25,28.04 27.25,27.61"/><polygon fill="#9798aa" points="20.75,39.93 26.00,35.89 26.00,33.85 20.75,37.89"/><polygon fill="#393957" points="28.25,30.08 44.25,37.00 45.75,35.85 29.75,28.92"/><polygon fill="#393957" points="27.00,36.32 42.00,42.81 42.75,42.24 27.75,35.75"/><polygon fill="#ced0df" points="17.00,33.09 19.00,33.95 27.25,27.61 25.25,26.74"/><polygon fill="#8a8b95" points="27.75,35.75 42.75,42.24 42.75,40.20 27.75,33.71"/><polygon fill="#a9abb7" points="42.75,42.24 48.00,38.20 48.00,36.16 42.75,40.20"/><polygon fill="#26263a" points="15.00,36.30 20.00,38.47 20.00,36.43 15.00,34.26"/><polygon fill="#ced0df" points="26.00,29.77 42.00,36.69 44.25,34.96 28.25,28.04"/><polygon fill="#b8b9cf" points="24.75,29.89 27.75,31.19 30.00,29.46 27.00,28.16"/><polygon fill="#b8b9cf" points="19.00,31.91 20.00,32.35 26.00,27.73 25.00,27.30"/><polygon fill="#2f2f47" points="36.00,50.49 48.00,41.26 48.00,38.20 36.00,47.43"/><polygon fill="#8a8b95" points="17.00,35.13 20.00,36.43 20.00,34.39 17.00,33.09"/><polygon fill="#b8b9cf" points="20.00,32.35 21.00,32.78 27.00,28.16 26.00,27.73"/><polygon fill="#26263a" points="20.00,43.57 36.00,50.49 36.00,47.43 20.00,40.51"/><polygon fill="#393957" points="23.25,30.03 24.25,30.46 25.75,29.31 24.75,28.87"/><polygon fill="#393957" points="20.00,40.51 36.00,47.43 36.75,46.85 20.75,39.93"/><polygon fill="#7b7c8b" points="19.00,33.95 20.00,34.39 20.00,32.35 19.00,31.91"/><polygon fill="#8a8b95" points="21.75,40.36 36.75,46.85 36.75,44.81 21.75,38.32"/><polygon fill="#393957" points="25.25,30.89 26.25,31.33 27.75,30.17 26.75,29.74"/><polygon fill="#a3855e" points="25.25,30.89 26.75,29.74 26.75,28.72 25.25,29.87"/><polygon fill="#c7a273" points="24.25,29.44 25.25,29.87 26.75,28.72 25.75,28.29"/><polygon fill="#856d4d" points="24.25,30.46 25.25,30.89 25.25,29.87 24.25,29.44"/><polygon fill="#2f2f47" points="24.00,34.08 27.75,31.19 27.75,30.17 24.00,33.06"/><polygon fill="#2f2f47" points="36.00,45.39 45.75,37.89 45.75,35.85 36.00,43.35"/><polygon fill="#393957" points="21.00,31.76 24.00,33.06 26.25,31.33 23.25,30.03"/><polygon fill="#a9abb7" points="36.75,46.85 42.00,42.81 42.00,40.77 36.75,44.81"/><polygon fill="#26263a" points="20.00,38.47 36.00,45.39 36.00,43.35 20.00,36.43"/><polygon fill="#26263a" points="21.00,32.78 24.00,34.08 24.00,33.06 21.00,31.76"/><polygon fill="#8a8b95" points="20.00,36.43 36.00,43.35 36.00,41.31 20.00,34.39"/><polygon fill="#b8b9cf" points="24.00,34.08 36.00,39.27 42.00,34.65 30.00,29.46"/><polygon fill="#a9abb7" points="36.00,43.35 44.25,37.00 44.25,34.96 36.00,41.31"/><polygon fill="#7b7c8b" points="20.00,34.39 36.00,41.31 36.00,39.27 20.00,32.35"/><polygon fill="#9798aa" points="36.00,41.31 42.00,36.69 42.00,34.65 36.00,39.27"/></svg>